<svg width="37" height="26" viewBox="0 0 37 26" fill="none" xmlns="http://www.w3.org/2000/svg">
<path d="M18.7791 19.6755C12.9901 16.528 11.2598 10.9486 15.7013 8.34436C17.6486 7.20197 20.3408 6.99735 23.1209 7.65539C25.6137 8.24278 27.863 9.4573 29.5346 11.006C32.5699 13.8237 33.1183 17.4025 31.0097 19.5341C29.9173 20.6412 28.2105 21.3287 26.0975 21.4391C25.8996 21.4494 25.6987 21.4538 25.4978 21.4538C23.3233 21.4553 20.9581 20.8635 18.7791 19.6755ZM5.96494 1.22654C2.83874 2.50583 0.19496 5.37799 -6.10352e-05 8.77864V9.58243C0.00433793 9.65457 0.0102032 9.72817 0.0160685 9.80178C0.53368 15.6212 6.62918 19.4473 11.1821 21.9852C14.9755 24.1007 20.2396 25.963 25.0741 25.9703H25.1239C26.7134 25.9689 28.256 25.7657 29.6842 25.3035C31.74 24.6395 33.4512 23.5958 34.6579 22.2017C37.6566 18.7377 36.9997 13.2216 32.6417 8.50188C29.9584 5.59292 26.1401 3.14916 21.8218 1.63138C18.9038 0.603823 15.7629 0.000244141 12.7437 0.000244141C10.3507 0.000244141 8.03392 0.378585 5.96494 1.22654Z" fill="white"/>
</svg>
